PathFileType	4	(X/Y/Z)	D:\Documents\Paper\paper_03\paper_step_1_data\data_step_3\marker\BD\subject_01.tsv
DataRate	CameraRate	NumFrames	NumMarkers	Units	OrigDataRate	OrigDataStartFrame	OrigNumFrames
200	200	6	43	mm	200	402	200
Frame#	Time	Top.Head			L.Acromium			R.Acromium			Sternum			L.ASIS			R.ASIS			V.Sacral			R.Knee.Lat			R.Knee.Med			L.Knee.Lat			L.Knee.Med			L.Ankle.Lat			L.Toe.Tip			R.Heel			R.Ankle.Med			R.Ankle.Lat			L.Toe.Med			L.Toe.Lat			L.Heel			L.Ankle.Med			L.Shank1			L.Shank2			R.Toe.Tip			R.Toe.Med			R.Toe.Lat			L.Thigh2			L.Thigh1			L.Thigh3			R.Thigh3			R.Thigh1			R.Thigh2			R.Shank1			R.Shank2			R.Shank3			L.Shank3			L.Shank4			R.Shank4			L.Thigh4			R.Thigh4			R.Heel.Lat			R.Heel.Med			L.Heel.Lat			L.Heel.Med		
		X1	Y1	Z1	X2	Y2	Z2	X3	Y3	Z3	X4	Y4	Z4	X5	Y5	Z5	X6	Y6	Z6	X7	Y7	Z7	X8	Y8	Z8	X9	Y9	Z9	X10	Y10	Z10	X11	Y11	Z11	X12	Y12	Z12	X13	Y13	Z13	X14	Y14	Z14	X15	Y15	Z15	X16	Y16	Z16	X17	Y17	Z17	X18	Y18	Z18	X19	Y19	Z19	X20	Y20	Z20	X21	Y21	Z21	X22	Y22	Z22	X23	Y23	Z23	X24	Y24	Z24	X25	Y25	Z25	X26	Y26	Z26	X27	Y27	Z27	X28	Y28	Z28	X29	Y29	Z29	X30	Y30	Z30	X31	Y31	Z31	X32	Y32	Z32	X33	Y33	Z33	X34	Y34	Z34	X35	Y35	Z35	X36	Y36	Z36	X37	Y37	Z37	X38	Y38	Z38	X39	Y39	Z39	X40	Y40	Z40	X41	Y41	Z41	X42	Y42	Z42	X43	Y43	Z43
1799	8.99	924.952	1692.899	-993.783	933.773	1410.618	-818.151	1092.455	1399.651	-1090.651	900.834	1358.977	-1019.728	804.707	912.098	-931.626	927.427	931.603	-1133.748	1008.996	964.297	-952.889	1003.383	474.991	-1165.523	948.409	454.607	-1065.425	850.029	476.043	-845.743	886.087	456.963	-949.791	907.007	102.772	-808.616	727.471	56.766	-868.51	1104.942	34.321	-1104.176	990.204	103.183	-1115.238	1060.679	104.831	-1173.983	786.789	45.395	-908.134	793.467	46.368	-802.78	1001.346	31.447	-814.541	927.208	104.601	-894.5	831.361	388.322	-837.035	829.478	307.667	-819.039	876.101	54.52	-1277.167	900.01	44.53	-1205.422	986.476	37.44	-1275.005	791.47	613.265	-878.355	792.78	695.989	-874.582	837.014	692.386	-829.16	1031.32	656.606	-1155.494	976.745	648.058	-1188.797	977.738	565.056	-1181.822	987.785	390.298	-1204.745	1003.202	304.032	-1210.34	1046.99	399.408	-1181.513	883.643	395.986	-801.036	885.494	309.817	-784.661	1062.312	317.366	-1187.234	838.156	603.824	-833.606	1031.115	568.254	-1148.957	1098.278	32.148	-1172.676	1024.791	25.287	-1100.989	935.28	22.27	-780.053	956.494	27.348	-883.63
1800	8.995	924.994	1692.886	-993.81	933.828	1410.634	-818.15	1092.449	1399.658	-1090.687	900.853	1358.995	-1019.727	804.712	912.081	-931.613	927.412	931.592	-1133.73	1008.993	964.264	-952.875	1003.367	475.028	-1165.507	948.365	454.613	-1065.409	850.038	476.102	-845.751	886.106	456.988	-949.77	907.021	102.793	-808.581	727.464	56.775	-868.479	1104.895	34.306	-1104.182	990.215	103.246	-1115.277	1060.676	105.082	-1173.984	786.824	45.416	-908.11	793.488	46.333	-802.769	1001.378	31.44	-814.532	927.211	104.585	-894.507	831.313	388.35	-837.019	829.465	307.67	-819.023	876.112	54.5	-1277.17	899.998	44.549	-1205.398	986.484	37.479	-1275.031	791.469	613.234	-878.368	792.766	696.01	-874.597	837.02	692.363	-829.159	1031.337	656.614	-1155.46	976.754	648.067	-1188.797	977.751	565.025	-1181.785	987.796	390.29	-1204.701	1003.216	304.023	-1210.286	1046.99	399.408	-1181.497	883.646	395.956	-801.036	885.466	309.848	-784.66	1062.3	317.365	-1187.225	838.17	603.766	-833.624	1031.096	568.259	-1148.92	1098.318	32.164	-1172.671	1024.794	25.297	-1100.998	935.335	22.329	-780.037	956.485	27.312	-883.588
1801	9	925.008	1692.902	-993.836	933.831	1410.626	-818.16	1092.459	1399.653	-1090.661	900.861	1358.981	-1019.731	804.708	912.101	-931.583	927.402	931.591	-1133.691	1008.989	964.294	-952.868	1003.368	475.022	-1165.501	948.39	454.602	-1065.378	850.045	476.123	-845.745	886.073	456.966	-949.75	907.034	102.776	-808.573	727.491	56.808	-868.499	1104.902	34.338	-1104.187	990.204	103.191	-1115.254	1060.807	105.024	-1173.933	786.827	45.442	-908.099	793.445	46.353	-802.771	1001.379	31.479	-814.547	927.183	104.591	-894.507	831.361	388.309	-836.997	829.474	307.676	-819.039	876.111	54.556	-1277.177	900.007	44.499	-1205.382	986.457	37.455	-1275.026	791.49	613.269	-878.326	792.781	695.988	-874.552	837.006	692.378	-829.122	1031.333	656.634	-1155.453	976.767	648.054	-1188.771	977.736	565.062	-1181.763	987.788	390.268	-1204.694	1003.197	303.988	-1210.305	1046.981	399.394	-1181.476	883.638	395.991	-801.03	885.474	309.849	-784.657	1062.308	317.375	-1187.227	837.459	604.72	-832.908	1031.101	568.227	-1148.897	1098.264	32.157	-1172.679	1024.814	25.304	-1100.965	935.322	22.309	-780.035	956.48	27.328	-883.604
1802	9.005	925.026	1692.922	-993.888	933.861	1410.641	-818.134	1092.454	1399.661	-1090.694	900.88	1358.997	-1019.741	804.696	912.103	-931.571	927.408	931.6	-1133.687	1008.982	964.307	-952.844	1003.396	475.01	-1165.465	948.362	454.607	-1065.378	849.994	476.054	-845.729	886.095	456.975	-949.752	907.234	103.187	-808.355	727.45	56.804	-868.529	1104.906	34.353	-1104.188	990.203	103.189	-1115.243	1060.738	104.943	-1173.913	786.818	45.439	-908.075	793.461	46.359	-802.759	1001.353	31.441	-814.547	927.147	104.543	-894.509	831.352	388.323	-836.986	829.463	307.657	-819.024	876.08	54.526	-1277.175	900.006	44.518	-1205.362	986.467	37.452	-1275.031	791.496	613.263	-878.348	792.747	696.019	-874.545	837.034	692.383	-829.113	1031.337	656.629	-1155.413	976.752	648.03	-1188.745	977.742	565.079	-1181.752	987.781	390.29	-1204.694	1003.175	304.016	-1210.272	1046.965	399.394	-1181.436	883.649	395.957	-801.011	885.488	309.852	-784.624	1062.295	317.342	-1187.189	838.146	603.767	-833.537	1031.116	568.23	-1148.833	1098.263	32.152	-1172.684	1024.777	25.265	-1100.982	935.308	22.309	-780.06	956.506	27.325	-883.594
1803	9.01	925.058	1692.928	-993.909	933.898	1410.687	-818.18	1092.48	1399.643	-1090.721	900.879	1359.002	-1019.741	804.715	912.12	-931.521	927.417	931.596	-1133.652	1009.035	964.28	-952.853	1003.36	475.06	-1165.469	948.341	454.599	-1065.39	850.011	476.04	-845.713	886.125	456.994	-949.738	906.991	102.796	-808.591	727.472	56.831	-868.549	1104.912	34.331	-1104.174	990.222	103.21	-1115.27	1060.649	104.807	-1173.967	786.834	45.444	-908.068	793.464	46.374	-802.783	1001.346	31.458	-814.552	927.11	104.575	-894.477	831.34	388.349	-836.986	829.469	307.673	-819.026	876.069	54.536	-1277.181	900.019	44.497	-1205.378	986.465	37.456	-1275.008	791.484	613.239	-878.307	792.752	696.026	-874.529	837.02	692.398	-829.089	1031.329	656.607	-1155.389	976.741	648.043	-1188.724	977.732	565.039	-1181.729	987.788	390.318	-1204.677	1003.183	304.025	-1210.274	1046.971	399.419	-1181.447	883.618	395.969	-801.026	885.44	309.823	-784.645	1062.275	317.393	-1187.194	838.15	603.771	-833.531	1031.076	568.207	-1148.822	1098.269	32.142	-1172.668	1024.758	25.294	-1101.012	935.327	22.309	-780.053	956.475	27.311	-883.592
1804	9.015	925.101	1692.923	-993.933	933.897	1410.672	-818.168	1092.497	1399.641	-1090.709	900.897	1358.985	-1019.74	804.7	912.135	-931.526	927.407	931.612	-1133.659	1008.972	964.269	-952.828	1003.345	475.053	-1165.453	948.353	454.603	-1065.345	850.009	476.045	-845.667	886.082	456.953	-949.738	907.019	102.781	-808.606	727.408	56.779	-868.591	1104.903	34.337	-1104.173	990.202	103.206	-1115.288	1060.742	104.895	-1173.92	786.841	45.42	-908.067	793.459	46.346	-802.782	1001.34	31.442	-814.563	927.125	104.585	-894.497	831.38	388.307	-836.943	829.447	307.678	-819.002	876.061	54.512	-1277.179	900.022	44.509	-1205.372	986.434	37.482	-1275.027	791.487	613.265	-878.282	792.765	696.026	-874.519	836.994	692.385	-829.068	1031.326	656.597	-1155.356	976.771	648.029	-1188.692	977.768	565.033	-1181.701	987.742	390.288	-1204.657	1003.174	304.022	-1210.266	1046.955	399.422	-1181.433	883.593	395.958	-801.035	885.463	309.841	-784.651	1062.297	317.377	-1187.185	837.446	604.715	-832.855	1031.117	568.258	-1148.821	1098.284	32.153	-1172.66	1024.756	25.282	-1100.985	935.294	22.281	-780.045	956.479	27.357	-883.617
